<svg width="94" height="38" viewBox="0 0 94 38" fill="none" xmlns="http://www.w3.org/2000/svg">
<path d="M18.9219 1.875H23.4453V26.0391C23.4453 29.3047 22.4609 31.8594 20.4922 33.7031C18.5391 35.5469 15.9297 36.4688 12.6641 36.4688C9.27344 36.4688 6.63281 35.6016 4.74219 33.8672C2.85156 32.1328 1.90625 29.7031 1.90625 26.5781H6.40625C6.40625 28.5312 6.9375 30.0547 8 31.1484C9.07812 32.2422 10.6328 32.7891 12.6641 32.7891C14.5234 32.7891 16.0234 32.2031 17.1641 31.0312C18.3203 29.8594 18.9062 28.2188 18.9219 26.1094V1.875Z" fill="#3F3F3F"/>
<path d="M50.3984 20.2266H35.6094V32.3203H52.7891V36H31.1094V1.875H52.5547V5.57812H35.6094V16.5469H50.3984V20.2266ZM64.2031 1.875L75.3594 29.7188L86.5156 1.875H92.3516V36H87.8516V22.7109L88.2734 8.36719L77.0703 36H73.625L62.4453 8.4375L62.8906 22.7109V36H58.3906V1.875H64.2031Z" fill="white"/>
<path d="M18.9219 1.875V0.875H17.9219V1.875H18.9219ZM23.4453 1.875H24.4453V0.875H23.4453V1.875ZM20.4922 33.7031L19.8086 32.9732L19.8057 32.976L20.4922 33.7031ZM1.90625 26.5781V25.5781H0.90625V26.5781H1.90625ZM6.40625 26.5781H7.40625V25.5781H6.40625V26.5781ZM8 31.1484L7.2827 31.8452L7.28782 31.8504L8 31.1484ZM17.1641 31.0312L16.4522 30.3289L16.4475 30.3338L17.1641 31.0312ZM18.9219 26.1094L19.9219 26.1168V26.1094H18.9219ZM18.9219 2.875H23.4453V0.875H18.9219V2.875ZM22.4453 1.875V26.0391H24.4453V1.875H22.4453ZM22.4453 26.0391C22.4453 29.091 21.5338 31.3576 19.8086 32.9732L21.1757 34.433C23.3881 32.3611 24.4453 29.5184 24.4453 26.0391H22.4453ZM19.8057 32.976C18.0766 34.6082 15.7326 35.4688 12.6641 35.4688V37.4688C16.1267 37.4688 19.0015 36.4855 21.1786 34.4303L19.8057 32.976ZM12.6641 35.4688C9.44141 35.4688 7.07153 34.647 5.41819 33.1303L4.06619 34.6041C6.1941 36.5561 9.10546 37.4688 12.6641 37.4688V35.4688ZM5.41819 33.1303C3.77809 31.6257 2.90625 29.4889 2.90625 26.5781H0.90625C0.90625 29.9173 1.92503 32.6399 4.06619 34.6041L5.41819 33.1303ZM1.90625 27.5781H6.40625V25.5781H1.90625V27.5781ZM5.40625 26.5781C5.40625 28.7152 5.99197 30.5165 7.28272 31.8452L8.71728 30.4517C7.88303 29.5929 7.40625 28.3473 7.40625 26.5781H5.40625ZM7.28782 31.8504C8.60867 33.1904 10.4548 33.7891 12.6641 33.7891V31.7891C10.8108 31.7891 9.54758 31.2939 8.71218 30.4464L7.28782 31.8504ZM12.6641 33.7891C14.7529 33.7891 16.5253 33.1212 17.8807 31.7287L16.4475 30.3338C15.5215 31.2851 14.2939 31.7891 12.6641 31.7891V33.7891ZM17.8759 31.7336C19.2624 30.3283 19.9049 28.4101 19.9218 26.1168L17.9219 26.102C17.9076 28.0274 17.3782 29.3904 16.4522 30.3289L17.8759 31.7336ZM19.9219 26.1094V1.875H17.9219V26.1094H19.9219ZM50.3984 20.2266V21.2266H51.3984V20.2266H50.3984ZM35.6094 20.2266V19.2266H34.6094V20.2266H35.6094ZM35.6094 32.3203H34.6094V33.3203H35.6094V32.3203ZM52.7891 32.3203H53.7891V31.3203H52.7891V32.3203ZM52.7891 36V37H53.7891V36H52.7891ZM31.1094 36H30.1094V37H31.1094V36ZM31.1094 1.875V0.875H30.1094V1.875H31.1094ZM52.5547 1.875H53.5547V0.875H52.5547V1.875ZM52.5547 5.57812V6.57812H53.5547V5.57812H52.5547ZM35.6094 5.57812V4.57812H34.6094V5.57812H35.6094ZM35.6094 16.5469H34.6094V17.5469H35.6094V16.5469ZM50.3984 16.5469H51.3984V15.5469H50.3984V16.5469ZM50.3984 19.2266H35.6094V21.2266H50.3984V19.2266ZM34.6094 20.2266V32.3203H36.6094V20.2266H34.6094ZM35.6094 33.3203H52.7891V31.3203H35.6094V33.3203ZM51.7891 32.3203V36H53.7891V32.3203H51.7891ZM52.7891 35H31.1094V37H52.7891V35ZM32.1094 36V1.875H30.1094V36H32.1094ZM31.1094 2.875H52.5547V0.875H31.1094V2.875ZM51.5547 1.875V5.57812H53.5547V1.875H51.5547ZM52.5547 4.57812H35.6094V6.57812H52.5547V4.57812ZM34.6094 5.57812V16.5469H36.6094V5.57812H34.6094ZM35.6094 17.5469H50.3984V15.5469H35.6094V17.5469ZM49.3984 16.5469V20.2266H51.3984V16.5469H49.3984ZM64.2031 1.875L65.1314 1.50307L64.8797 0.875H64.2031V1.875ZM75.3594 29.7188L74.4311 30.0907L75.3594 32.4074L76.2876 30.0907L75.3594 29.7188ZM86.5156 1.875V0.875H85.839L85.5874 1.50307L86.5156 1.875ZM92.3516 1.875H93.3516V0.875H92.3516V1.875ZM92.3516 36V37H93.3516V36H92.3516ZM87.8516 36H86.8516V37H87.8516V36ZM87.8516 22.7109L86.852 22.6815L86.8516 22.6962V22.7109H87.8516ZM88.2734 8.36719L89.273 8.39659L87.3467 7.99146L88.2734 8.36719ZM77.0703 36V37H77.7439L77.997 36.3757L77.0703 36ZM73.625 36L72.6983 36.3759L72.9515 37H73.625V36ZM62.4453 8.4375L63.372 8.06163L61.4458 8.46868L62.4453 8.4375ZM62.8906 22.7109H63.8906V22.6953L63.8901 22.6798L62.8906 22.7109ZM62.8906 36V37H63.8906V36H62.8906ZM58.3906 36H57.3906V37H58.3906V36ZM58.3906 1.875V0.875H57.3906V1.875H58.3906ZM63.2749 2.24693L74.4311 30.0907L76.2876 29.3468L65.1314 1.50307L63.2749 2.24693ZM76.2876 30.0907L87.4439 2.24693L85.5874 1.50307L74.4311 29.3468L76.2876 30.0907ZM86.5156 2.875H92.3516V0.875H86.5156V2.875ZM91.3516 1.875V36H93.3516V1.875H91.3516ZM92.3516 35H87.8516V37H92.3516V35ZM88.8516 36V22.7109H86.8516V36H88.8516ZM88.8511 22.7403L89.273 8.39659L87.2739 8.33779L86.852 22.6815L88.8511 22.7403ZM87.3467 7.99146L76.1436 35.6243L77.997 36.3757L89.2002 8.74291L87.3467 7.99146ZM77.0703 35H73.625V37H77.0703V35ZM74.5517 35.6241L63.372 8.06163L61.5186 8.81337L72.6983 36.3759L74.5517 35.6241ZM61.4458 8.46868L61.8911 22.7421L63.8901 22.6798L63.4448 8.40632L61.4458 8.46868ZM61.8906 22.7109V36H63.8906V22.7109H61.8906ZM62.8906 35H58.3906V37H62.8906V35ZM59.3906 36V1.875H57.3906V36H59.3906ZM58.3906 2.875H64.2031V0.875H58.3906V2.875Z" fill="white"/>
</svg>
