<svg width="65" height="64" viewBox="0 0 65 64" fill="none" xmlns="http://www.w3.org/2000/svg">
<path d="M16.5 30.9512V48.0001H33.5489L29.9933 44.4445H20.0556V34.5067L16.5 30.9512Z" fill="#666666"/>
<path d="M62.491 57.4045L57.3888 52.2311V56.8889H7.61101V49.5111H11.1666V46.6667H7.61101V34.8445H11.1666V32H7.61101V20.6222H11.1666V17.7778H7.61101V7.84002L35.9488 36.0178V31.0045L7.09545 2.29335C6.84679 2.04263 6.5291 1.87164 6.18288 1.80219C5.83666 1.73273 5.47761 1.76795 5.15148 1.90336C4.82536 2.03877 4.54695 2.26823 4.35175 2.56248C4.15655 2.85674 4.0534 3.20246 4.05545 3.55557V58.6667C4.05545 59.1382 4.24275 59.5904 4.57615 59.9238C4.90955 60.2572 5.36173 60.4445 5.83323 60.4445H61.2288C61.5819 60.4465 61.9276 60.3434 62.2219 60.1482C62.5161 59.953 62.7456 59.6746 62.881 59.3484C63.0164 59.0223 63.0516 58.6632 62.9822 58.317C62.9127 57.9708 62.7417 57.6531 62.491 57.4045Z" fill="#666666"/>
<path d="M43.1666 53.3332H50.2778C51.2207 53.3332 52.1251 52.9586 52.7919 52.2918C53.4587 51.625 53.8333 50.7207 53.8333 49.7777V15.4666L49.7444 7.94658C49.4282 7.3987 48.9715 6.94512 48.4215 6.63261C47.8715 6.32011 47.2481 6.16 46.6155 6.1688C45.9687 6.17393 45.3355 6.35544 44.7841 6.69376C44.2328 7.03209 43.7842 7.51442 43.4866 8.0888L39.6111 15.5021V49.7777C39.6111 50.7207 39.9857 51.625 40.6525 52.2918C41.3193 52.9586 42.2236 53.3332 43.1666 53.3332ZM43.1666 16.3555L46.6155 9.65324L50.2778 16.3732V42.6666H43.1666V16.3555ZM43.1666 45.5643H50.2778V49.9021H43.1666V45.5643Z" fill="#666666"/>
</svg>
