<svg width="300" height="251" viewBox="0 0 300 251" fill="none" xmlns="http://www.w3.org/2000/svg">
<g clip-path="url(#clip0)">
<path d="M283.407 80.05C283.407 90.4653 280.94 99.0386 276.661 106.383C275.249 108.802 273.645 111.104 271.866 113.268C256.135 132.508 226.888 143.039 200.455 160.097C122.428 210.447 113.976 129.766 117.5 80.05C118.921 59.9894 126.733 41.6138 139.145 27.5441C141.751 24.585 144.567 21.8169 147.57 19.261C161.66 7.26138 179.864 0 200.455 0C235.782 0 265.949 21.3074 277.911 51.3331C281.547 60.4703 283.412 70.2158 283.407 80.05Z" fill="black"/>
<path d="M218.128 18.041L139.145 27.5442C141.751 24.5851 144.567 21.817 147.57 19.2611L218.128 18.041Z" fill="#D0CDE1"/>
<path d="M276.661 106.383C275.249 108.802 273.645 111.105 271.866 113.268L204.21 105.13L276.661 106.383Z" fill="#D0CDE1"/>
<path d="M280.671 59.5895L166.008 44.7173L277.91 51.3331C278.985 54.0311 279.907 56.7876 280.671 59.5895Z" fill="#D0CDE1"/>
<path d="M125.278 21.3227C125.278 21.527 125.272 21.7284 125.254 21.9268C125.164 23.1566 124.802 24.351 124.192 25.4228C123.582 26.4946 122.741 27.417 121.73 28.1227C120.719 28.8285 119.563 29.2997 118.347 29.5023C117.13 29.7048 115.884 29.6335 114.699 29.2935C113.514 28.9536 112.419 28.3535 111.495 27.5371C110.571 26.7206 109.841 25.7083 109.357 24.5739C108.874 23.4395 108.65 22.2116 108.701 20.9796C108.752 19.7476 109.078 18.5425 109.653 17.4521C109.832 17.1104 110.036 16.7828 110.263 16.4719C111.255 15.0966 112.645 14.0584 114.245 13.4975C115.845 12.9365 117.578 12.8798 119.212 13.335C120.845 13.7901 122.299 14.7352 123.379 16.0428C124.458 17.3504 125.111 18.9575 125.248 20.6475C125.269 20.8696 125.278 21.0947 125.278 21.3227Z" fill="black"/>
<path d="M125.278 21.323C125.278 21.5273 125.272 21.7287 125.254 21.9271L112.84 20.4346L125.248 20.6478C125.269 20.8699 125.278 21.095 125.278 21.323Z" fill="#D0CDE1"/>
<path d="M122.316 25.5015L110.832 26.8844C110.506 26.521 110.213 26.1296 109.955 25.7147L122.316 25.5015Z" fill="#D0CDE1"/>
<path d="M119.059 16.3208L109.653 17.4521C109.832 17.1104 110.036 16.7827 110.263 16.4718L119.059 16.3208Z" fill="#D0CDE1"/>
<path d="M238.917 170.615C238.821 170.796 238.721 170.971 238.613 171.138C237.957 172.182 237.077 173.067 236.036 173.728C234.995 174.389 233.819 174.809 232.595 174.959C231.371 175.108 230.13 174.983 228.96 174.591C227.791 174.2 226.724 173.553 225.836 172.697C224.948 171.841 224.263 170.798 223.829 169.644C223.396 168.489 223.225 167.253 223.33 166.024C223.435 164.795 223.812 163.606 224.435 162.541C225.058 161.477 225.91 160.565 226.93 159.872C227.248 159.654 227.581 159.46 227.928 159.292C229.449 158.542 231.163 158.276 232.839 158.531C234.516 158.786 236.074 159.548 237.303 160.716C238.532 161.884 239.374 163.4 239.715 165.061C240.055 166.722 239.878 168.448 239.207 170.005C239.121 170.211 239.024 170.414 238.917 170.615Z" fill="black"/>
<path d="M238.917 170.615C238.821 170.796 238.721 170.971 238.613 171.138L228.347 164L239.207 170.005C239.121 170.211 239.024 170.414 238.917 170.615Z" fill="#D0CDE1"/>
<path d="M234.342 172.918L223.55 168.756C223.432 168.282 223.356 167.799 223.324 167.312L234.342 172.918Z" fill="#D0CDE1"/>
<path d="M235.768 163.282L226.93 159.872C227.248 159.654 227.581 159.46 227.928 159.292L235.768 163.282Z" fill="#D0CDE1"/>
<path d="M297.645 27.6751C297.788 27.8214 297.924 27.9697 298.05 28.1241C298.845 29.0672 299.419 30.1756 299.731 31.3685C300.043 32.5615 300.085 33.809 299.853 35.0202C299.622 36.2314 299.124 37.3759 298.395 38.3701C297.665 39.3643 296.723 40.1834 295.637 40.7676C294.551 41.3517 293.349 41.6863 292.117 41.747C290.886 41.8077 289.656 41.5929 288.518 41.1183C287.38 40.6436 286.362 39.9211 285.539 39.0034C284.715 38.0856 284.107 36.9958 283.757 35.8131C283.647 35.444 283.564 35.0671 283.51 34.6854C283.259 33.0085 283.529 31.2951 284.283 29.7763C285.037 28.2576 286.239 27.0065 287.726 26.192C289.213 25.3774 290.914 25.0385 292.6 25.221C294.285 25.4035 295.874 26.0985 297.153 27.2124C297.323 27.3569 297.486 27.5119 297.645 27.6751Z" fill="black"/>
<path d="M297.645 27.6751C297.788 27.8214 297.924 27.9697 298.05 28.1242L288.121 35.7233L297.153 27.2124C297.323 27.3569 297.486 27.5119 297.645 27.6751Z" fill="#D0CDE1"/>
<path d="M298.443 32.7344L291.187 41.7428C290.7 41.7103 290.216 41.6348 289.742 41.5174L298.443 32.7344Z" fill="#D0CDE1"/>
<path d="M289.701 28.4365L283.757 35.8133C283.646 35.4442 283.564 35.0672 283.51 34.6856L289.701 28.4365Z" fill="#D0CDE1"/>
<path d="M142.083 180.484C142.083 180.484 160.28 181.243 160.28 185.792C160.28 190.341 139.808 185.792 139.808 185.792L142.083 180.484Z" fill="#A0616A"/>
<path d="M114.788 250.238L80.6694 247.963L79.153 229.767L71.5711 245.689L38.2107 241.139C38.9689 212.328 51.1 184.275 51.8581 180.484C52.6163 176.693 54.4284 161.029 54.4284 161.029C57.7417 154.001 75.1042 153.341 88.7138 153.978C94.3548 154.236 99.3588 154.721 102.445 155.07C104.484 155.297 105.69 155.464 105.69 155.464C111.126 161.067 114.629 168.702 116.782 177.232C124.546 207.961 114.788 250.238 114.788 250.238Z" fill="#2F2E41"/>
<path d="M76.8783 74.3378C87.3468 74.3378 95.8331 65.8514 95.8331 55.383C95.8331 44.9146 87.3468 36.4282 76.8783 36.4282C66.4099 36.4282 57.9236 44.9146 57.9236 55.383C57.9236 65.8514 66.4099 74.3378 76.8783 74.3378Z" fill="#A0616A"/>
<path d="M63.9892 59.9321C63.9892 59.9321 58.6818 83.436 50.3417 90.2597C42.0016 97.0835 82.9439 90.2597 82.9439 90.2597C82.9439 90.2597 73.8456 75.0959 80.6694 68.2722C87.4931 61.4485 63.9892 59.9321 63.9892 59.9321Z" fill="#A0616A"/>
<path d="M102.657 156.98L90.0785 158.375L54.8909 162.288C54.8909 162.288 54.7241 161.84 54.4284 161.029C51.8733 154.061 39.5679 120.155 38.2107 109.972C36.6943 98.5996 52.6163 84.9522 52.6163 84.9522C52.6163 84.9522 67.7802 81.9194 72.3293 81.9194C76.8784 81.9194 95.075 88.7431 95.075 88.7431L101.861 149.785L102.445 155.07L102.657 156.98Z" fill="#D0CDE1"/>
<path opacity="0.15" d="M116.782 177.232L91.2841 162.288C91.2841 162.288 90.8367 160.832 90.0785 158.375C89.6994 157.147 89.237 155.661 88.7138 153.978C85.772 144.531 80.8362 128.942 76.8785 117.554C70.8129 100.116 100.382 148.64 100.382 148.64L101.861 149.785L102.445 155.07C104.484 155.297 105.69 155.464 105.69 155.464C111.126 161.067 114.629 168.702 116.782 177.232Z" fill="black"/>
<path d="M82.944 90.2598C82.944 90.2598 75.3621 100.116 81.4276 117.555C87.4931 134.993 95.8332 162.288 95.8332 162.288L139.808 188.066L145.874 180.484L104.932 148.64C104.932 148.64 103.415 91.018 95.8332 88.7434C88.2513 86.4688 82.944 90.2598 82.944 90.2598Z" fill="#D0CDE1"/>
<path d="M45.4135 156.601C45.4135 156.601 56.0281 178.589 60.5773 176.314C65.1264 174.04 49.2044 151.294 49.2044 151.294L45.4135 156.601Z" fill="#A0616A"/>
<path d="M44.2762 96.3252L4.0921 129.686C4.0921 129.686 -11.0717 140.3 16.9814 147.882C45.0344 155.464 47.309 160.013 47.309 160.013C47.309 160.013 50.3417 150.157 54.1327 151.673L21.5305 135.751L48.0672 119.829L44.2762 96.3252Z" fill="#D0CDE1"/>
<path d="M28.1259 70.9402C30.2349 69.8958 34.8921 67.7879 38.859 65.2483C38.5808 56.9867 39.5982 49.4869 42.5762 45.5115C44.2479 41.716 47.7581 37.9161 50.5073 34.9235C57.2588 27.5746 72.1877 23.4726 74.8355 27.1443C94.8622 27.5397 96.9705 43.2376 96.9705 43.2376C96.8663 49.8036 90.0421 50.0113 84.0642 49.7721C84.5995 54.2546 83.1729 58.9123 79.0417 60.9778C71.1419 64.9277 68.7719 70.0627 72.7218 73.6176C76.6718 77.1726 83.7817 86.6524 74.3018 89.0224C64.822 91.3923 63.637 96.1323 66.402 98.1073C69.167 100.082 60.082 94.5523 60.082 94.5523C60.082 94.5523 58.5021 104.032 50.2072 101.662C49.4638 101.45 48.7209 100.906 47.9904 100.092C45.7502 102.553 43.7516 104.009 42.2454 104.017C33.6187 104.062 34.6532 94.5076 34.6532 94.5076C34.6532 94.5076 24.4138 97.3833 27.6089 96.2269C30.8039 95.0706 30.9408 90.1867 22.451 85.3485C13.9612 80.5104 23.3637 73.2986 28.1259 70.9402Z" fill="#2F2E41"/>
<path d="M133.97 95.7072L133.832 95.6891L134.168 96.9644C134.485 98.7436 134.945 100.494 135.545 102.199L145.384 139.604C145.698 140.798 146.354 141.874 147.271 142.701C148.188 143.527 149.326 144.068 150.546 144.257L170.613 147.361C171.91 147.562 173.238 147.355 174.413 146.768C175.588 146.182 176.551 145.246 177.171 144.088L196.241 108.469C196.837 107.482 197.381 106.465 197.872 105.422L198.519 104.213L198.418 104.2C200.44 99.4178 201.33 94.2335 201.019 89.0511C200.707 83.8687 199.203 78.8282 196.624 74.3225C194.045 69.8168 190.46 65.9676 186.149 63.075C181.837 60.1825 176.916 58.3246 171.769 57.6464C166.622 56.9681 161.387 57.4877 156.474 59.1648C151.56 60.8418 147.101 63.6308 143.442 67.3146C139.784 70.9983 137.026 75.4772 135.382 80.4021C133.739 85.327 133.256 90.5648 133.97 95.7072Z" fill="#3F3F3F"/>
<path d="M171.844 149.805C171.491 149.805 171.138 149.778 170.789 149.724L149.814 146.478C148.481 146.273 147.238 145.682 146.237 144.78C145.235 143.877 144.519 142.702 144.177 141.398L133.892 102.3C133.263 100.51 132.78 98.6721 132.447 96.8045L132.187 95.094C131.487 89.6296 132.067 84.0773 133.881 78.8755C135.695 73.6736 138.693 68.9646 142.639 65.1201C146.585 61.2756 151.37 58.4009 156.617 56.723C161.865 55.0451 167.43 54.6098 172.875 55.4516L172.784 56.0369C167.399 55.207 161.894 55.6472 156.709 57.3222C151.525 58.9972 146.803 61.8608 142.921 65.6844C139.04 69.508 136.105 74.1858 134.352 79.3447C132.599 84.5037 132.076 90.0009 132.825 95.3978L133.025 96.6772C133.355 98.5291 133.834 100.351 134.457 102.126L144.75 141.247C145.063 142.44 145.718 143.514 146.633 144.34C147.549 145.165 148.686 145.705 149.904 145.893L170.879 149.138C172.175 149.337 173.5 149.13 174.673 148.545C175.846 147.959 176.808 147.025 177.428 145.87L177.95 146.149C177.358 147.253 176.477 148.176 175.402 148.82C174.327 149.464 173.097 149.804 171.844 149.805Z" fill="#D0CDE1"/>
<path d="M177.165 104.21L164.402 139.057L165.122 139.32L177.884 104.473L177.165 104.21Z" fill="#D0CDE1"/>
<path d="M156.326 100.985L155.561 101.019L157.19 138.093L157.955 138.06L156.326 100.985Z" fill="#D0CDE1"/>
<path d="M170.071 167.53L143.194 163.372C142.994 163.34 142.815 163.23 142.696 163.066C142.577 162.903 142.527 162.699 142.558 162.499C142.589 162.299 142.698 162.119 142.861 161.999C143.024 161.879 143.228 161.828 143.428 161.858L170.305 166.016C170.405 166.031 170.501 166.065 170.588 166.117C170.674 166.169 170.749 166.238 170.809 166.319C170.869 166.401 170.912 166.493 170.936 166.591C170.961 166.689 170.965 166.791 170.95 166.891C170.934 166.991 170.899 167.086 170.847 167.173C170.794 167.259 170.725 167.334 170.643 167.393C170.562 167.453 170.469 167.495 170.371 167.519C170.273 167.542 170.171 167.546 170.071 167.53Z" fill="#3F3D56"/>
<path d="M170.76 161.823L143.883 157.665C143.783 157.65 143.687 157.616 143.601 157.564C143.514 157.512 143.439 157.443 143.379 157.362C143.319 157.28 143.276 157.188 143.252 157.09C143.228 156.992 143.223 156.89 143.239 156.79C143.254 156.69 143.289 156.595 143.342 156.508C143.394 156.422 143.463 156.347 143.545 156.288C143.627 156.228 143.719 156.186 143.818 156.162C143.916 156.139 144.018 156.135 144.117 156.151L170.994 160.309C171.094 160.324 171.19 160.358 171.277 160.41C171.363 160.462 171.439 160.531 171.499 160.612C171.558 160.694 171.602 160.786 171.626 160.884C171.65 160.982 171.654 161.084 171.639 161.184C171.623 161.283 171.588 161.379 171.536 161.465C171.483 161.552 171.414 161.627 171.332 161.686C171.251 161.745 171.158 161.788 171.06 161.812C170.962 161.835 170.86 161.839 170.76 161.823Z" fill="#3F3D56"/>
<path d="M171.449 156.115L144.572 151.957C144.372 151.925 144.193 151.815 144.074 151.651C143.955 151.488 143.906 151.284 143.937 151.084C143.968 150.884 144.077 150.704 144.24 150.584C144.403 150.464 144.606 150.413 144.807 150.443L171.684 154.601C171.883 154.633 172.062 154.743 172.182 154.907C172.301 155.07 172.35 155.274 172.319 155.474C172.288 155.674 172.179 155.854 172.016 155.974C171.853 156.094 171.65 156.145 171.449 156.115H171.449Z" fill="#3F3D56"/>
<path d="M155.797 170.851C161.128 171.676 165.91 169.374 166.477 165.708L147.171 162.722C146.604 166.387 150.466 170.027 155.797 170.851Z" fill="#3F3D56"/>
<path d="M165.458 96.8675C164.311 96.6903 163.363 95.7839 162.843 95.1763C162.672 94.9771 162.506 94.7705 162.339 94.5634C161.734 93.8094 161.162 93.0973 160.365 92.7259C158.607 91.9056 156.536 93.0514 154.742 94.2806L154.309 93.6488C156.281 92.2969 158.58 91.0481 160.689 92.0315C161.647 92.4783 162.303 93.2944 162.937 94.0835C163.098 94.2845 163.259 94.4848 163.424 94.6781C163.965 95.3097 165.044 96.3331 166.2 96.0971C166.687 95.9551 167.14 95.7153 167.531 95.3923C167.829 95.1699 168.144 94.9711 168.473 94.7978C169.14 94.4778 169.888 94.3624 170.62 94.4659C171.353 94.5695 172.039 94.8875 172.592 95.3799C172.789 95.5665 172.975 95.7638 173.15 95.9709C173.495 96.3638 173.82 96.7345 174.244 96.8693C174.87 97.0695 175.532 96.7116 176.233 96.3335C176.956 95.9433 177.704 95.5396 178.552 95.6392C178.579 95.6425 178.607 95.6462 178.634 95.6504C180.144 95.8839 180.839 97.5527 181.233 98.7982L180.502 99.0289C179.967 97.3359 179.316 96.494 178.462 96.4001C177.855 96.3287 177.244 96.6585 176.597 97.0076C175.786 97.4454 174.947 97.8979 174.011 97.5993C173.385 97.4 172.973 96.9305 172.574 96.4763C172.417 96.2904 172.251 96.1132 172.074 95.9453C171.634 95.5599 171.092 95.3111 170.512 95.2292C169.933 95.1474 169.343 95.236 168.813 95.4843C168.52 95.6403 168.239 95.8186 167.973 96.0177C167.498 96.4054 166.946 96.6882 166.354 96.8476C166.059 96.9077 165.755 96.9144 165.458 96.8675Z" fill="#D0CDE1"/>
</g>
<defs>
<clipPath id="clip0">
<rect width="300" height="250.238" fill="white"/>
</clipPath>
</defs>
</svg>
