<svg version="1.2" baseProfile="tiny-ps" xmlns="http://www.w3.org/2000/svg" viewBox="0 0 93 38" width="512" height="512">
	<title>JEM-Logo-svg-svg</title>
	<style>
		tspan { white-space:pre }
		.s0 { fill: #ffffff } 
		.s1 { fill: #3f3f3f } 
	</style>
	<path id="Layer" class="s0" d="m18.26 1.88h4.52v24.16c0 3.27-0.98 5.82-2.95 7.66c-1.95 1.84-4.56 2.77-7.83 2.77c-3.39 0-6.03-0.87-7.92-2.6c-1.89-1.73-2.84-4.16-2.84-7.29h4.5c0 1.95 0.53 3.48 1.59 4.57c1.08 1.09 2.63 1.64 4.66 1.64c1.86 0 3.36-0.59 4.5-1.76c1.16-1.17 1.74-2.81 1.76-4.92v-24.23z" />
	<path id="Layer" class="s1" d="m49.73 20.23h-14.79v12.09h17.18v3.68h-21.68v-34.13h21.45v3.7h-16.95v10.97h14.79v3.68zm13.8-18.35l11.16 27.84l11.16-27.84h5.84v34.13h-4.5v-13.29l0.42-14.34l-11.2 27.63h-3.45l-11.18-27.56l0.45 14.27v13.29h-4.5v-34.13h5.81z" />
	<path id="Layer" fill-rule="evenodd" class="s1" d="m17.26 0.88h6.52v25.16c0 3.48-1.06 6.32-3.27 8.39l0 0c-2.18 2.06-5.05 3.04-8.51 3.04c-3.56 0-6.47-0.91-8.6-2.86c-2.14-1.96-3.16-4.69-3.16-8.03v-1h6.5v1c0 1.77 0.47 3.01 1.31 3.87l0 0c0.84 0.85 2.1 1.34 3.95 1.34c1.63 0 2.86-0.5 3.78-1.46l0.72 0.7l0 0l-0.71-0.69l0 0l0.47 0.47l-0.47-0.47c0.93-0.94 1.46-2.3 1.47-4.23v-25.23zm-0.04 30.86c-1.35 1.39-3.13 2.06-5.21 2.06c-2.21 0-4.06-0.6-5.38-1.94l-0.01-0.01l0 0c-1.08-1.12-1.67-2.57-1.83-4.27l-2.51 0c0.18 2.41 1.03 4.23 2.48 5.55c1.65 1.52 4.02 2.34 7.25 2.34c3.07 0 5.41-0.86 7.14-2.49l0 0l0.68 0.73l0.01 0.01l-0.69-0.74c1.73-1.62 2.64-3.88 2.64-6.93l0-23.16h-2.52l0 23.24c-0.02 2.29-0.66 4.21-2.04 5.61zm33.52-10.5l-14.79 0v10.09h17.18v5.68h-23.68v-36.13h23.45v5.7h-16.95l0 8.97l14.79 0v5.68zm-16.79-3.68v-12.97h16.95v-1.7h-19.45v32.13h19.68l0-1.68h-17.18v-14.09h14.79l0-1.68h-14.79zm30.27-16.67l0.25 0.63l10.23 25.53l10.23-25.53l0.93 0.37v0l-0.93-0.37l0.25-0.63h7.51v36.13h-6.5v-1h1v-1h1v-12.27l0 0.01l-0.18-0.02l-0.13 0.01l-1.69-0.05l0 0.01v13.3h2v-1h2.5v-32.13l-4.16 0l-10.9 27.22l-0.93-0.37l-0.93 0.37l-10.9-27.22h-4.14v32.13h2.5v1h2v1h-6.5v-36.13h7.49zm23.66 21.84l-0.69 0l-1-0.03l0.26-8.78l-9.11 22.48l-0.93-0.38v0l0.93 0.38l-0.25 0.62h-4.79l-0.25-0.62l-9.08-22.38l0.27 8.69l0 0.02v0.02h-1l-1 0.03l0-0.01v12.27h1v1h1v-13.29h-2v0.02l-0.44-14.26l1-0.03l0.93-0.38l10.93 26.94l2.1 0l10.95-27.01l0.93 0.38l1 0.03l-0.42 14.33v-0.02l-0.19 0.01l-0.13-0.01zm-12.25 7.38l-0.93 2.32l-0.93-2.32l0.93-0.37l0.93 0.37zm11.06-22.1l1.93 0.41l-1-0.03l-0.93-0.38zm-25.9 0.48l1.93-0.41l-0.93 0.38l-1 0.03z" />
</svg>