<svg width="71" height="29" viewBox="0 0 71 29" fill="none" xmlns="http://www.w3.org/2000/svg">
<path d="M14.6934 1.40625H18.0859V19.5293C18.0859 21.9785 17.3477 23.8945 15.8711 25.2773C14.4062 26.6602 12.4492 27.3516 10 27.3516C7.45703 27.3516 5.47656 26.7012 4.05859 25.4004C2.64062 24.0996 1.93164 22.2773 1.93164 19.9336H5.30664C5.30664 21.3984 5.70508 22.541 6.50195 23.3613C7.31055 24.1816 8.47656 24.5918 10 24.5918C11.3945 24.5918 12.5195 24.1523 13.375 23.2734C14.2422 22.3945 14.6816 21.1641 14.6934 19.582V1.40625Z" fill="white"/>
<path d="M38.3008 15.1699H27.209V24.2402H40.0938V27H23.834V1.40625H39.918V4.18359H27.209V12.4102H38.3008V15.1699ZM48.6543 1.40625L57.0215 22.2891L65.3887 1.40625H69.7656V27H66.3906V17.0332L66.707 6.27539L58.3047 27H55.7207L47.3359 6.32812L47.6699 17.0332V27H44.2949V1.40625H48.6543Z" fill="#3F3F3F"/>
<path d="M14.6934 1.40625V0.40625H13.6934V1.40625H14.6934ZM18.0859 1.40625H19.0859V0.40625H18.0859V1.40625ZM15.8711 25.2773L15.1875 24.5474L15.1846 24.5502L15.8711 25.2773ZM1.93164 19.9336V18.9336H0.931641V19.9336H1.93164ZM5.30664 19.9336H6.30664V18.9336H5.30664V19.9336ZM6.50195 23.3613L5.78465 24.0581L5.78978 24.0633L6.50195 23.3613ZM13.375 23.2734L12.6631 22.5711L12.6584 22.576L13.375 23.2734ZM14.6934 19.582L15.6934 19.5894V19.582H14.6934ZM14.6934 2.40625H18.0859V0.40625H14.6934V2.40625ZM17.0859 1.40625V19.5293H19.0859V1.40625H17.0859ZM17.0859 19.5293C17.0859 21.7648 16.4205 23.3928 15.1875 24.5474L16.5546 26.0072C18.2748 24.3963 19.0859 22.1923 19.0859 19.5293H17.0859ZM15.1846 24.5502C13.9438 25.7215 12.2522 26.3516 10 26.3516V28.3516C12.6463 28.3516 14.8687 27.5988 16.5575 26.0045L15.1846 24.5502ZM10 26.3516C7.62501 26.3516 5.91528 25.7466 4.73459 24.6635L3.38259 26.1373C5.03785 27.6558 7.28906 28.3516 10 28.3516V26.3516ZM4.73459 24.6635C3.56715 23.5925 2.93164 22.0631 2.93164 19.9336H0.931641C0.931641 22.4915 1.7141 24.6067 3.38259 26.1373L4.73459 24.6635ZM1.93164 20.9336H5.30664V18.9336H1.93164V20.9336ZM4.30664 19.9336C4.30664 21.5824 4.75954 23.0028 5.78467 24.0581L7.21923 22.6645C6.65061 22.0792 6.30664 21.2145 6.30664 19.9336H4.30664ZM5.78978 24.0633C6.84109 25.1299 8.29853 25.5918 10 25.5918V23.5918C8.65459 23.5918 7.78 23.2334 7.21413 22.6593L5.78978 24.0633ZM10 25.5918C11.624 25.5918 13.0214 25.0704 14.0916 23.9709L12.6584 22.576C12.0176 23.2343 11.165 23.5918 10 23.5918V25.5918ZM14.0868 23.9758C15.1843 22.8635 15.6803 21.3554 15.6933 19.5894L13.6934 19.5746C13.683 20.9727 13.3001 21.9256 12.6632 22.5711L14.0868 23.9758ZM15.6934 19.582V1.40625H13.6934V19.582H15.6934ZM38.3008 15.1699V16.1699H39.3008V15.1699H38.3008ZM27.209 15.1699V14.1699H26.209V15.1699H27.209ZM27.209 24.2402H26.209V25.2402H27.209V24.2402ZM40.0938 24.2402H41.0938V23.2402H40.0938V24.2402ZM40.0938 27V28H41.0938V27H40.0938ZM23.834 27H22.834V28H23.834V27ZM23.834 1.40625V0.40625H22.834V1.40625H23.834ZM39.918 1.40625H40.918V0.40625H39.918V1.40625ZM39.918 4.18359V5.18359H40.918V4.18359H39.918ZM27.209 4.18359V3.18359H26.209V4.18359H27.209ZM27.209 12.4102H26.209V13.4102H27.209V12.4102ZM38.3008 12.4102H39.3008V11.4102H38.3008V12.4102ZM38.3008 14.1699H27.209V16.1699H38.3008V14.1699ZM26.209 15.1699V24.2402H28.209V15.1699H26.209ZM27.209 25.2402H40.0938V23.2402H27.209V25.2402ZM39.0938 24.2402V27H41.0938V24.2402H39.0938ZM40.0938 26H23.834V28H40.0938V26ZM24.834 27V1.40625H22.834V27H24.834ZM23.834 2.40625H39.918V0.40625H23.834V2.40625ZM38.918 1.40625V4.18359H40.918V1.40625H38.918ZM39.918 3.18359H27.209V5.18359H39.918V3.18359ZM26.209 4.18359V12.4102H28.209V4.18359H26.209ZM27.209 13.4102H38.3008V11.4102H27.209V13.4102ZM37.3008 12.4102V15.1699H39.3008V12.4102H37.3008ZM48.6543 1.40625L49.5826 1.03432L49.3309 0.40625H48.6543V1.40625ZM57.0215 22.2891L56.0932 22.661L57.0215 24.9777L57.9497 22.661L57.0215 22.2891ZM65.3887 1.40625V0.40625H64.7121L64.4604 1.03432L65.3887 1.40625ZM69.7656 1.40625H70.7656V0.40625H69.7656V1.40625ZM69.7656 27V28H70.7656V27H69.7656ZM66.3906 27H65.3906V28H66.3906V27ZM66.3906 17.0332L65.3911 17.0038L65.3906 17.0185V17.0332H66.3906ZM66.707 6.27539L67.7066 6.30479L65.7803 5.89967L66.707 6.27539ZM58.3047 27V28H58.9783L59.2314 27.3757L58.3047 27ZM55.7207 27L54.794 27.3759L55.0472 28H55.7207V27ZM47.3359 6.32812L48.2626 5.95226L46.3364 6.35931L47.3359 6.32812ZM47.6699 17.0332H48.6699V17.0176L48.6694 17.002L47.6699 17.0332ZM47.6699 27V28H48.6699V27H47.6699ZM44.2949 27H43.2949V28H44.2949V27ZM44.2949 1.40625V0.40625H43.2949V1.40625H44.2949ZM47.726 1.77818L56.0932 22.661L57.9497 21.9171L49.5826 1.03432L47.726 1.77818ZM57.9497 22.661L66.3169 1.77818L64.4604 1.03432L56.0932 21.9171L57.9497 22.661ZM65.3887 2.40625H69.7656V0.40625H65.3887V2.40625ZM68.7656 1.40625V27H70.7656V1.40625H68.7656ZM69.7656 26H66.3906V28H69.7656V26ZM67.3906 27V17.0332H65.3906V27H67.3906ZM67.3902 17.0626L67.7066 6.30479L65.7075 6.24599L65.3911 17.0038L67.3902 17.0626ZM65.7803 5.89967L57.378 26.6243L59.2314 27.3757L67.6338 6.65111L65.7803 5.89967ZM58.3047 26H55.7207V28H58.3047V26ZM56.6474 26.6241L48.2626 5.95226L46.4093 6.70399L54.794 27.3759L56.6474 26.6241ZM46.3364 6.35931L46.6704 17.0644L48.6694 17.002L48.3355 6.29694L46.3364 6.35931ZM46.6699 17.0332V27H48.6699V17.0332H46.6699ZM47.6699 26H44.2949V28H47.6699V26ZM45.2949 27V1.40625H43.2949V27H45.2949ZM44.2949 2.40625H48.6543V0.40625H44.2949V2.40625Z" fill="#3F3F3F"/>
</svg>
